<svg width="26" height="26" viewBox="0 0 26 26" fill="none" xmlns="http://www.w3.org/2000/svg">
<g clip-path="url(#clip0_20_261)">
<path d="M25.7403 7.18145L20.9539 2.39281C20.7877 2.2264 20.5618 2.13281 20.3265 2.13281C20.0912 2.13281 19.8653 2.22631 19.699 2.39281L9.94794 12.1479L6.30085 8.49957C6.13443 8.33324 5.90875 8.23966 5.67326 8.23966C5.43795 8.23966 5.21218 8.33324 5.04585 8.49966L0.259661 13.2885C-0.0865682 13.635 -0.0865682 14.1965 0.259748 14.5429L9.32044 23.6074C9.48677 23.7739 9.71245 23.8674 9.94794 23.8674C10.1833 23.8674 10.409 23.774 10.5754 23.6074L25.7403 8.43576C26.0866 8.08944 26.0866 7.52786 25.7403 7.18145Z" fill="white"/>
</g>
<defs>
<clipPath id="clip0_20_261">
<rect width="26" height="26" fill="white"/>
</clipPath>
</defs>
</svg>
