<svg width="20" height="20" viewBox="0 0 20 20" fill="none" xmlns="http://www.w3.org/2000/svg">
<rect width="20" height="20" rx="10" fill="#0046BB"/>
<g clip-path="url(#clip0_147_749)">
<path fill-rule="evenodd" clip-rule="evenodd" d="M12.4697 5.5C13.1402 5.5 13.7852 5.765 14.2597 6.2405C14.7347 6.715 15.0002 7.355 15.0002 8.025V11.975C15.0002 13.37 13.8652 14.5 12.4697 14.5H7.53018C6.13468 14.5 5.00018 13.37 5.00018 11.975V8.025C5.00018 6.63 6.12968 5.5 7.53018 5.5H12.4697ZM13.2652 8.77L13.3052 8.73C13.4247 8.585 13.4247 8.375 13.2997 8.23C13.2302 8.1555 13.1347 8.11 13.0352 8.1C12.9302 8.0945 12.8302 8.13 12.7547 8.2L10.5002 10C10.2102 10.2405 9.79468 10.2405 9.50018 10L7.25018 8.2C7.09468 8.085 6.87968 8.1 6.75018 8.235C6.61518 8.37 6.60018 8.585 6.71468 8.735L6.78018 8.8L9.05518 10.575C9.33518 10.795 9.67468 10.915 10.0302 10.915C10.3847 10.915 10.7302 10.795 11.0097 10.575L13.2652 8.77Z" fill="white"/>
</g>
<defs>
<clipPath id="clip0_147_749">
<rect width="10" height="10" fill="white" transform="translate(5 5)"/>
</clipPath>
</defs>
</svg>
