<svg width="18" height="18" viewBox="0 0 18 18" fill="none" xmlns="http://www.w3.org/2000/svg">
<g clip-path="url(#clip0_147_737)">
<path d="M16.4654 2.13242C16.4654 2.13242 18.1306 1.48314 17.9918 3.05998C17.9455 3.70927 17.5293 5.98177 17.2055 8.4398L16.0954 15.7211C16.0954 15.7211 16.0029 16.7878 15.1703 16.9733C14.3377 17.1588 13.0889 16.324 12.8576 16.1385C12.6726 15.9994 9.3886 13.9123 8.2323 12.892C7.9085 12.6138 7.53841 12.0572 8.27851 11.408L13.1352 6.77021C13.6902 6.21367 14.2453 4.9151 11.9326 6.49194L5.457 10.8978C5.457 10.8978 4.717 11.3616 3.3294 10.9442L0.3229 10.0166C0.3229 10.0166 -0.787199 9.32098 1.1092 8.62528C5.7346 6.44553 11.4238 4.2194 16.4654 2.13242Z" fill="#0046BB"/>
</g>
<defs>
<clipPath id="clip0_147_737">
<rect width="18" height="18" fill="white"/>
</clipPath>
</defs>
</svg>
