<svg width="18" height="18" viewBox="0 0 18 18" fill="none" xmlns="http://www.w3.org/2000/svg">
<g clip-path="url(#clip0_147_736)">
<path fill-rule="evenodd" clip-rule="evenodd" d="M0.0023962 9.00133C0.00134214 4.0311 4.02756 0.00105895 8.99519 4.32888e-06C10.6792 -0.0016479 12.3298 0.469695 13.7592 1.36042C17.9759 3.98796 19.2653 9.53809 16.6391 13.757C14.0129 17.9759 8.46566 19.266 4.24898 16.6384L0.50118 17.9771C0.460809 17.9917 0.41819 17.999 0.375254 17.9988C0.328981 17.9989 0.283129 17.9903 0.239948 17.9737C0.0468427 17.8991 -0.0492881 17.682 0.0252343 17.4888L1.42465 13.8561C0.496367 12.4072 0.00274755 10.7224 0.0023962 9.00133ZM11.7903 9.78789C12.3653 10.0879 13.2835 10.5378 13.2835 10.5378C13.4116 10.601 13.4927 10.7316 13.4926 10.8746V11.6245C13.3041 12.7167 12.3516 13.5108 11.2439 13.4994C10.0664 13.4994 7.80576 12.091 6.85605 11.14C5.90634 10.1891 4.49793 7.92726 4.49793 6.74985C4.48655 5.64159 5.28022 4.68863 6.37181 4.5H7.12136C7.26278 4.50014 7.39204 4.5799 7.45567 4.70625C7.45567 4.70625 7.90913 5.62492 8.20522 6.20089C8.53876 6.85183 7.91289 7.61604 7.55609 7.97676C7.77112 8.53708 8.09577 9.04877 8.51104 9.48191C8.94401 9.89732 9.45545 10.2221 10.0154 10.4374C10.3752 10.0804 11.1397 9.45266 11.7903 9.78789Z" fill="#0046BB"/>
</g>
<defs>
<clipPath id="clip0_147_736">
<rect width="18" height="18" fill="white"/>
</clipPath>
</defs>
</svg>
