<?xml version="1.0" standalone="no"?>
<!DOCTYPE svg PUBLIC "-//W3C//DTD SVG 20010904//EN"
 "http://www.w3.org/TR/2001/REC-SVG-20010904/DTD/svg10.dtd">
<svg version="1.0" xmlns="http://www.w3.org/2000/svg"
 width="512.000000pt" height="512.000000pt" viewBox="0 0 512.000000 512.000000"
 preserveAspectRatio="xMidYMid meet">
<metadata>
Created by potrace 1.14, written by Peter Selinger 2001-2017
</metadata>
<g transform="translate(0.000000,512.000000) scale(0.100000,-0.100000)"
fill="#000000" stroke="none">
<path d="M3165 4789 c-137 -32 -260 -61 -272 -64 -13 -3 -23 -12 -23 -19 0 -8
16 -80 35 -160 19 -81 35 -152 35 -159 0 -8 -17 -21 -37 -31 -56 -26 -150 -92
-220 -152 -33 -30 -64 -54 -67 -54 -3 0 -48 26 -99 58 -50 31 -100 62 -109 67
-9 6 -33 20 -52 32 l-35 22 -53 -86 c-29 -47 -60 -97 -69 -112 -9 -14 -55 -88
-102 -163 l-85 -137 26 -18 c15 -10 35 -22 44 -28 10 -5 64 -39 121 -74 l104
-64 -23 -87 c-23 -89 -33 -154 -38 -249 -2 -33 -8 -56 -17 -61 -8 -4 -84 -24
-170 -44 l-155 -37 28 -122 c16 -67 31 -131 33 -142 27 -123 69 -292 74 -298
4 -4 81 10 172 31 l165 38 39 -68 c43 -76 96 -150 156 -216 22 -25 36 -49 32
-55 -4 -7 -39 -64 -78 -127 -40 -63 -77 -125 -83 -137 -11 -20 1 -29 232 -172
133 -83 246 -151 249 -151 5 0 67 87 67 95 0 17 121 190 131 188 8 -1 64 -14
126 -27 62 -13 145 -26 185 -28 l72 -4 13 -44 c7 -25 15 -54 17 -65 29 -140
53 -225 64 -225 8 0 50 9 95 21 45 12 93 23 107 25 14 3 90 21 170 40 80 19
154 36 165 38 11 2 20 9 20 17 -1 13 -21 102 -61 264 -13 55 -13 61 2 70 90
55 227 152 262 184 24 23 46 41 50 41 4 0 30 -15 58 -33 28 -19 57 -37 65 -40
8 -4 50 -30 93 -57 l79 -49 54 85 c29 47 53 87 53 89 0 2 10 19 23 37 12 19
38 59 57 91 19 31 54 87 77 124 23 36 40 70 37 74 -2 4 -65 45 -139 90 -75 45
-138 85 -140 89 -3 5 6 55 20 111 14 57 28 144 31 194 4 49 8 91 9 93 2 2 70
19 151 38 190 44 183 42 179 62 -9 49 -128 548 -131 551 -1 2 -62 -11 -134
-29 -73 -17 -141 -33 -152 -35 -11 -2 -28 -7 -39 -10 -10 -4 -19 -2 -19 3 0
28 -122 209 -193 284 l-35 38 79 126 c44 69 79 128 79 131 0 4 6 14 14 22 13
14 -7 29 -180 136 -277 172 -298 184 -305 185 -3 0 -46 -64 -94 -142 -48 -79
-89 -144 -90 -146 -2 -2 -34 5 -72 16 -97 28 -144 35 -297 45 l-30 2 -36 150
c-20 83 -37 153 -38 158 -1 4 -2 12 -2 17 0 14 1 14 -275 -51z m505 -882 c308
-73 521 -344 521 -662 0 -286 -175 -538 -443 -639 -245 -92 -531 -31 -711 151
-78 78 -120 142 -157 235 -40 103 -45 133 -44 268 0 98 4 127 28 195 39 113
87 189 175 275 103 101 233 169 358 186 26 3 49 7 51 9 8 7 167 -5 222 -18z"/>
<path d="M760 3965 c-19 -7 -37 -12 -40 -12 -32 0 -170 -39 -170 -47 0 -7 9
-52 19 -101 20 -88 19 -105 0 -105 -12 0 -116 -70 -146 -99 -29 -27 -36 -27
-88 9 -24 17 -47 30 -50 30 -4 0 -21 10 -38 22 -19 14 -32 18 -34 11 -2 -6
-35 -61 -74 -121 -38 -60 -69 -114 -69 -118 0 -5 39 -31 85 -59 58 -34 83 -55
80 -65 -4 -13 -32 -132 -34 -145 -1 -3 -1 -22 -1 -43 l0 -39 -100 -22 c-84
-19 -100 -25 -96 -39 2 -9 17 -71 32 -137 15 -66 30 -123 33 -127 3 -3 40 2
81 13 121 31 109 34 161 -45 26 -39 58 -83 72 -97 l26 -25 -54 -87 -54 -87 27
-18 c15 -11 71 -46 124 -80 l97 -61 23 37 c12 20 37 60 55 88 l32 52 42 -14
c23 -8 77 -18 120 -21 78 -6 78 -6 84 -37 17 -84 38 -166 44 -166 3 0 35 7 71
16 36 9 74 17 85 20 11 2 32 6 47 10 15 3 29 4 30 3 2 -1 12 3 24 9 l21 11
-22 98 -22 98 56 33 c31 18 74 48 96 67 22 19 43 35 47 35 3 0 43 -23 89 -51
63 -40 84 -48 90 -38 4 8 39 64 78 124 57 91 67 112 55 120 -8 6 -48 31 -88
57 l-74 47 13 38 c16 47 28 117 27 160 -1 35 2 39 39 47 13 3 33 7 44 10 127
29 118 24 110 60 -3 17 -8 36 -9 41 -1 6 -13 56 -26 111 l-23 102 -61 -15
c-33 -8 -68 -16 -76 -18 -8 -2 -26 -6 -40 -9 -22 -5 -29 0 -58 52 -18 32 -48
75 -67 95 -19 21 -35 41 -35 45 0 3 23 44 51 90 28 46 50 85 48 86 -23 19
-224 139 -236 140 -10 0 -36 -31 -66 -80 l-50 -80 -51 13 c-28 8 -82 17 -120
21 l-70 7 -21 88 c-12 48 -22 91 -23 95 -3 11 -34 10 -72 -3z m227 -488 c45
-11 132 -61 168 -96 248 -240 99 -651 -244 -676 -260 -19 -470 232 -404 484
35 137 124 231 260 277 63 21 157 26 220 11z"/>
<path d="M1630 2063 c-14 -2 -39 -8 -56 -14 -17 -5 -40 -11 -50 -13 -19 -4
-150 -35 -169 -40 -5 -2 -29 -7 -52 -11 -24 -4 -43 -9 -43 -12 0 -2 7 -36 16
-76 16 -67 16 -72 -1 -82 -9 -5 -37 -25 -61 -43 l-43 -32 -55 35 c-30 19 -59
36 -64 37 -9 2 -68 -88 -234 -358 -4 -6 20 -26 58 -49 41 -23 63 -43 60 -51
-3 -7 -8 -39 -12 -71 -3 -32 -10 -61 -15 -64 -5 -3 -39 -11 -74 -18 -36 -7
-65 -15 -65 -17 0 -3 15 -69 34 -147 19 -78 40 -169 47 -202 7 -33 15 -64 19
-68 4 -4 38 -1 75 8 61 14 70 14 77 1 5 -8 24 -36 43 -61 39 -51 39 -50 -16
-131 l-28 -40 176 -110 c97 -60 182 -112 189 -117 8 -5 24 12 49 53 33 55 45
65 68 61 4 -1 24 -4 45 -6 77 -11 78 -12 90 -66 7 -28 12 -59 12 -70 0 -10 4
-19 9 -19 4 0 86 18 182 41 96 22 182 42 192 44 57 12 56 9 37 89 l-17 74 37
21 c20 11 44 29 55 41 10 11 21 20 25 20 4 0 34 -18 68 -39 l61 -40 49 77 c54
85 117 186 135 217 7 11 20 32 30 47 9 14 17 28 17 31 0 2 -27 22 -61 43 l-61
39 7 54 c12 92 15 97 89 111 51 9 66 16 66 30 0 19 -90 403 -96 409 -2 2 -35
-3 -74 -11 l-70 -16 -36 54 c-20 30 -40 56 -45 59 -4 3 10 34 31 68 22 34 36
65 32 69 -10 10 -293 188 -299 188 -3 0 -16 9 -30 20 -31 24 -39 19 -84 -55
-18 -30 -36 -52 -40 -49 -9 5 -85 17 -116 18 -19 1 -24 9 -33 56 -20 98 -16
94 -80 83z m156 -594 c71 -27 136 -85 169 -153 31 -63 36 -85 36 -152 0 -121
-86 -245 -202 -290 -114 -45 -258 -14 -344 75 -93 94 -117 240 -61 355 76 155
244 224 402 165z"/>
</g>
</svg>
